<mxfile host="app.diagrams.net" agent="Mozilla/5.0 (X11; Ubuntu; Linux x86_64; rv:135.0) Gecko/20100101 Firefox/135.0" version="26.0.16">
  <diagram id="zynq_fpga" name="Zynq FPGA System">
    <mxGraphModel dx="1510" dy="1545" grid="1" gridSize="10" guides="1" tooltips="1" connect="1" arrows="1" fold="1" page="1" pageScale="1" pageWidth="827" pageHeight="1169" math="0" shadow="0">
      <root>
        <mxCell id="0" />
        <mxCell id="1" parent="0" />
        <mxCell id="rPUi-_QmenckTHMZJI0U-24" value="Processing Logic (PL)" style="rounded=1;fillColor=#D9E3F0;labelPosition=center;verticalLabelPosition=top;align=center;verticalAlign=bottom;strokeColor=#003366;fontSize=13;spacingTop=0;spacingBottom=-22;" parent="1" vertex="1">
          <mxGeometry x="141" y="-120" width="319" height="160" as="geometry" />
        </mxCell>
        <mxCell id="rPUi-_QmenckTHMZJI0U-5" value="Accelerator" style="rounded=1;fillColor=#d5e8d4;strokeColor=#82b366;fontColor=#000000;fontSize=13;" parent="1" vertex="1">
          <mxGeometry x="339" y="-90" width="101" height="110" as="geometry" />
        </mxCell>
        <mxCell id="ps7" value="Processing System (PS)" style="rounded=1;fillColor=#d9e3f0;strokeColor=#003366;fontColor=#000000;fontSize=13;" parent="1" vertex="1">
          <mxGeometry x="-60" y="-90" width="170" height="110" as="geometry" />
        </mxCell>
        <mxCell id="conn2" style="edgeStyle=elbowEdgeStyle;rounded=1;entryX=0;entryY=0.25;entryDx=0;entryDy=0;exitX=1;exitY=0.25;exitDx=0;exitDy=0;" parent="1" edge="1">
          <mxGeometry relative="1" as="geometry">
            <mxPoint x="599.9999999999998" y="113.75" as="targetPoint" />
          </mxGeometry>
        </mxCell>
        <mxCell id="conn3" style="edgeStyle=elbowEdgeStyle;rounded=1;" parent="1" edge="1">
          <mxGeometry relative="1" as="geometry">
            <mxPoint x="699.9655172413793" y="300" as="targetPoint" />
          </mxGeometry>
        </mxCell>
        <mxCell id="rPUi-_QmenckTHMZJI0U-6" value="DDR" style="rounded=1;fillColor=#f8cecc;strokeColor=#b85450;fontColor=#000000;fontSize=13;" parent="1" vertex="1">
          <mxGeometry x="-147" y="-90" width="60" height="110" as="geometry" />
        </mxCell>
        <mxCell id="rPUi-_QmenckTHMZJI0U-7" value="DMA" style="rounded=1;fillColor=#fff2cc;strokeColor=#d6b656;fontColor=#000000;fontSize=13;" parent="1" vertex="1">
          <mxGeometry x="161" y="-90" width="150" height="110" as="geometry" />
        </mxCell>
        <mxCell id="rPUi-_QmenckTHMZJI0U-20" value="S_AXI_LITE" style="rounded=0;whiteSpace=wrap;html=1;labelPosition=center;verticalLabelPosition=middle;align=center;verticalAlign=middle;fontSize=6;fillColor=#CFCFCF;strokeColor=default;imageWidth=24;imageHeight=24;strokeWidth=1;" parent="1" vertex="1">
          <mxGeometry x="366.5" y="4" width="46" height="16" as="geometry" />
        </mxCell>
        <mxCell id="rPUi-_QmenckTHMZJI0U-25" value="M_AXI" style="rounded=0;whiteSpace=wrap;html=1;labelPosition=center;verticalLabelPosition=middle;align=center;verticalAlign=middle;fontSize=6;fillColor=#CFCFCF;strokeColor=default;imageWidth=24;imageHeight=24;strokeWidth=1;" parent="1" vertex="1">
          <mxGeometry x="2" y="4" width="46" height="16" as="geometry" />
        </mxCell>
        <mxCell id="rPUi-_QmenckTHMZJI0U-26" value="S_AXI_HP" style="rounded=0;whiteSpace=wrap;html=1;labelPosition=center;verticalLabelPosition=middle;align=center;verticalAlign=middle;fontSize=6;fillColor=#CFCFCF;strokeColor=default;imageWidth=24;imageHeight=24;strokeWidth=1;" parent="1" vertex="1">
          <mxGeometry x="64" y="-70" width="46" height="16" as="geometry" />
        </mxCell>
        <mxCell id="rPUi-_QmenckTHMZJI0U-27" value="S_AXI_LITE" style="rounded=0;whiteSpace=wrap;html=1;labelPosition=center;verticalLabelPosition=middle;align=center;verticalAlign=middle;fontSize=6;fillColor=#CFCFCF;strokeColor=default;imageWidth=24;imageHeight=24;strokeWidth=1;" parent="1" vertex="1">
          <mxGeometry x="213" y="4" width="46" height="16" as="geometry" />
        </mxCell>
        <mxCell id="rPUi-_QmenckTHMZJI0U-28" value="S_AXIS" style="rounded=0;whiteSpace=wrap;html=1;labelPosition=center;verticalLabelPosition=middle;align=center;verticalAlign=middle;fontSize=6;fillColor=#CFCFCF;strokeColor=default;imageWidth=24;imageHeight=24;strokeWidth=1;" parent="1" vertex="1">
          <mxGeometry x="339" y="-70" width="46" height="16" as="geometry" />
        </mxCell>
        <mxCell id="rPUi-_QmenckTHMZJI0U-29" value="M_AXIS" style="rounded=0;whiteSpace=wrap;html=1;labelPosition=center;verticalLabelPosition=middle;align=center;verticalAlign=middle;fontSize=6;fillColor=#CFCFCF;strokeColor=default;imageWidth=24;imageHeight=24;strokeWidth=1;" parent="1" vertex="1">
          <mxGeometry x="339" y="-15" width="46" height="16" as="geometry" />
        </mxCell>
        <mxCell id="rPUi-_QmenckTHMZJI0U-30" value="M_AXI_MM2S" style="rounded=0;whiteSpace=wrap;html=1;labelPosition=center;verticalLabelPosition=middle;align=center;verticalAlign=middle;fontSize=6;imageWidth=24;imageHeight=24;fillColor=#CFCFCF;strokeColor=default;strokeWidth=1;" parent="1" vertex="1">
          <mxGeometry x="161" y="-70" width="46" height="16" as="geometry" />
        </mxCell>
        <mxCell id="rPUi-_QmenckTHMZJI0U-31" value="M_AXIS_S2MM" style="rounded=0;whiteSpace=wrap;html=1;labelPosition=center;verticalLabelPosition=middle;align=center;verticalAlign=middle;fontSize=6;fillColor=#CFCFCF;strokeColor=default;imageWidth=24;imageHeight=24;strokeWidth=1;" parent="1" vertex="1">
          <mxGeometry x="265" y="-70" width="46" height="16" as="geometry" />
        </mxCell>
        <mxCell id="rPUi-_QmenckTHMZJI0U-32" value="S_AXIS_MM2S" style="rounded=0;whiteSpace=wrap;html=1;labelPosition=center;verticalLabelPosition=middle;align=center;verticalAlign=middle;fontSize=6;fillColor=#CFCFCF;strokeColor=default;imageWidth=24;imageHeight=24;strokeWidth=1;" parent="1" vertex="1">
          <mxGeometry x="265" y="-15" width="46" height="16" as="geometry" />
        </mxCell>
        <mxCell id="rPUi-_QmenckTHMZJI0U-34" value="M_AXI_S2MM" style="rounded=0;whiteSpace=wrap;html=1;labelPosition=center;verticalLabelPosition=middle;align=center;verticalAlign=middle;fontSize=6;fillColor=#CFCFCF;strokeColor=default;imageWidth=24;imageHeight=24;strokeWidth=1;" parent="1" vertex="1">
          <mxGeometry x="161" y="-15" width="46" height="16" as="geometry" />
        </mxCell>
        <mxCell id="JBeOS1iYl6J1y1IGV_0k-4" style="edgeStyle=elbowEdgeStyle;rounded=1;shape=flexArrow;endArrow=block;startFill=0;startArrow=none;arcSize=20;width=4;startSize=2.769230769230769;endSize=2.769230769230769;endWidth=7.581360946745561;startWidth=7.581360946745561;fillColor=#000000;exitX=0;exitY=0.25;exitDx=0;exitDy=0;entryX=1;entryY=0.25;entryDx=0;entryDy=0;" edge="1" parent="1" source="ps7" target="rPUi-_QmenckTHMZJI0U-6">
          <mxGeometry relative="1" as="geometry">
            <mxPoint x="-70" y="-120" as="sourcePoint" />
            <mxPoint x="-120" y="-119.25" as="targetPoint" />
            <Array as="points">
              <mxPoint x="-100" y="-60" />
            </Array>
          </mxGeometry>
        </mxCell>
        <mxCell id="JBeOS1iYl6J1y1IGV_0k-17" style="edgeStyle=elbowEdgeStyle;rounded=1;shape=flexArrow;endArrow=block;startFill=0;startArrow=none;arcSize=20;width=4;startSize=2.769230769230769;endSize=2.769230769230769;endWidth=7.581360946745561;startWidth=7.581360946745561;fillColor=#000000;exitX=0;exitY=0.25;exitDx=0;exitDy=0;entryX=1;entryY=0.25;entryDx=0;entryDy=0;" edge="1" parent="1" source="rPUi-_QmenckTHMZJI0U-7" target="ps7">
          <mxGeometry relative="1" as="geometry">
            <mxPoint x="54" y="-130" as="sourcePoint" />
            <mxPoint x="24" y="-130" as="targetPoint" />
            <Array as="points">
              <mxPoint x="120" y="-80" />
            </Array>
          </mxGeometry>
        </mxCell>
        <mxCell id="JBeOS1iYl6J1y1IGV_0k-18" style="edgeStyle=elbowEdgeStyle;rounded=1;shape=flexArrow;endArrow=block;startFill=0;startArrow=none;arcSize=20;width=4;startSize=2.769230769230769;endSize=2.769230769230769;endWidth=7.581360946745561;startWidth=7.581360946745561;fillColor=#000000;entryX=1;entryY=0.25;entryDx=0;entryDy=0;exitX=0;exitY=0.75;exitDx=0;exitDy=0;" edge="1" parent="1" source="rPUi-_QmenckTHMZJI0U-7" target="ps7">
          <mxGeometry relative="1" as="geometry">
            <mxPoint x="140" as="sourcePoint" />
            <mxPoint x="130" y="-30" as="targetPoint" />
            <Array as="points">
              <mxPoint x="130" y="-40" />
            </Array>
          </mxGeometry>
        </mxCell>
        <mxCell id="JBeOS1iYl6J1y1IGV_0k-19" style="edgeStyle=elbowEdgeStyle;rounded=1;shape=flexArrow;endArrow=block;startFill=0;startArrow=none;arcSize=20;width=4;startSize=2.769230769230769;endSize=2.769230769230769;endWidth=7.581360946745561;startWidth=7.581360946745561;fillColor=#000000;exitX=1;exitY=0.25;exitDx=0;exitDy=0;entryX=0;entryY=0.25;entryDx=0;entryDy=0;" edge="1" parent="1" source="rPUi-_QmenckTHMZJI0U-7" target="rPUi-_QmenckTHMZJI0U-5">
          <mxGeometry relative="1" as="geometry">
            <mxPoint x="321" y="-190" as="sourcePoint" />
            <mxPoint x="350" y="-187.5" as="targetPoint" />
            <Array as="points">
              <mxPoint x="321" y="-60" />
            </Array>
          </mxGeometry>
        </mxCell>
        <mxCell id="JBeOS1iYl6J1y1IGV_0k-20" style="edgeStyle=elbowEdgeStyle;rounded=1;shape=flexArrow;endArrow=block;startFill=0;startArrow=none;arcSize=20;width=4;startSize=2.769230769230769;endSize=2.769230769230769;endWidth=7.581360946745561;startWidth=7.581360946745561;fillColor=#000000;exitX=0;exitY=0.75;exitDx=0;exitDy=0;entryX=1;entryY=0.75;entryDx=0;entryDy=0;" edge="1" parent="1" source="rPUi-_QmenckTHMZJI0U-5" target="rPUi-_QmenckTHMZJI0U-7">
          <mxGeometry relative="1" as="geometry">
            <mxPoint x="321" y="-52" as="sourcePoint" />
            <mxPoint x="350" y="-52" as="targetPoint" />
            <Array as="points">
              <mxPoint x="331" y="-50" />
            </Array>
          </mxGeometry>
        </mxCell>
        <mxCell id="JBeOS1iYl6J1y1IGV_0k-21" style="edgeStyle=elbowEdgeStyle;rounded=1;shape=flexArrow;endArrow=block;startFill=0;startArrow=none;arcSize=20;width=4;startSize=2.769230769230769;endSize=2.769230769230769;endWidth=7.581360946745561;startWidth=7.581360946745561;fillColor=#000000;exitX=1;exitY=0.75;exitDx=0;exitDy=0;entryX=0;entryY=0.75;entryDx=0;entryDy=0;" edge="1" parent="1" source="rPUi-_QmenckTHMZJI0U-6" target="ps7">
          <mxGeometry relative="1" as="geometry">
            <mxPoint x="-50" y="-52" as="sourcePoint" />
            <mxPoint x="-70" y="-52" as="targetPoint" />
            <Array as="points">
              <mxPoint x="-80" y="-20" />
            </Array>
          </mxGeometry>
        </mxCell>
        <mxCell id="JBeOS1iYl6J1y1IGV_0k-22" style="edgeStyle=elbowEdgeStyle;rounded=1;shape=flexArrow;endArrow=block;startFill=0;startArrow=none;arcSize=20;width=4;startSize=2.769230769230769;endSize=2.769230769230769;endWidth=7.581360946745561;startWidth=7.581360946745561;fillColor=#000000;exitX=0.5;exitY=1;exitDx=0;exitDy=0;entryX=0.5;entryY=1;entryDx=0;entryDy=0;" edge="1" parent="1" source="ps7" target="rPUi-_QmenckTHMZJI0U-7">
          <mxGeometry relative="1" as="geometry">
            <mxPoint x="44" y="70" as="sourcePoint" />
            <mxPoint x="200" y="70" as="targetPoint" />
            <Array as="points">
              <mxPoint x="130" y="50" />
            </Array>
          </mxGeometry>
        </mxCell>
        <mxCell id="JBeOS1iYl6J1y1IGV_0k-25" style="edgeStyle=elbowEdgeStyle;rounded=1;shape=flexArrow;endArrow=block;startFill=0;startArrow=none;arcSize=20;width=4;startSize=2.769230769230769;endSize=2.769230769230769;endWidth=7.581360946745561;startWidth=7.581360946745561;fillColor=#000000;exitX=0.5;exitY=1;exitDx=0;exitDy=0;entryX=0.5;entryY=1;entryDx=0;entryDy=0;" edge="1" parent="1" source="ps7" target="rPUi-_QmenckTHMZJI0U-5">
          <mxGeometry relative="1" as="geometry">
            <mxPoint x="35" y="30" as="sourcePoint" />
            <mxPoint x="246" y="30" as="targetPoint" />
            <Array as="points">
              <mxPoint x="210" y="50" />
            </Array>
          </mxGeometry>
        </mxCell>
      </root>
    </mxGraphModel>
  </diagram>
</mxfile>
